<?xml version="1.0" encoding="UTF-8"?>
<!DOCTYPE svg PUBLIC "-//W3C//DTD SVG 1.1//EN" "http://www.w3.org/Graphics/SVG/1.1/DTD/svg11.dtd">
<svg xmlns="http://www.w3.org/2000/svg" version="1.1" width="348px" height="96px" style="shape-rendering:geometricPrecision; text-rendering:geometricPrecision; image-rendering:optimizeQuality; fill-rule:evenodd; clip-rule:evenodd" xmlns:xlink="http://www.w3.org/1999/xlink">
<g><path style="opacity:0.842" fill="#7cccbe" d="M -0.5,42.5 C -0.5,40.1667 -0.5,37.8333 -0.5,35.5C 0.451145,34.0813 0.784479,32.4147 0.5,30.5C 4.18174,30.6653 7.84841,30.4986 11.5,30C 12.432,26.9146 13.0986,23.7479 13.5,20.5C 9.83333,20.5 6.16667,20.5 2.5,20.5C 3.16667,16.5 3.83333,12.5 4.5,8.5C 8.5,8.5 12.5,8.5 16.5,8.5C 16.2062,12.0998 15.5396,15.5998 14.5,19C 17.8823,19.8236 21.2156,19.657 24.5,18.5C 25.3818,15.2094 26.0484,11.876 26.5,8.5C 30.5138,8.33449 34.5138,8.50115 38.5,9C 25.4687,20.1745 12.4687,31.3411 -0.5,42.5 Z"/></g>
<g><path style="opacity:0.92" fill="#2f3433" d="M 22.5,30.5 C 26.8333,30.5 31.1667,30.5 35.5,30.5C 37.8836,44.5848 40.717,58.5848 44,72.5C 51.6667,58.8333 59.3333,45.1667 67,31.5C 71.0659,30.5363 75.2325,30.203 79.5,30.5C 76.4994,49.1693 73.4994,67.836 70.5,86.5C 67.1667,86.5 63.8333,86.5 60.5,86.5C 62.667,75.1663 64.5003,63.8329 66,52.5C 59.6667,63.5 53.3333,74.5 47,85.5C 43.6064,86.4558 40.1064,86.7892 36.5,86.5C 34.3206,74.447 31.8206,62.447 29,50.5C 27,61.8333 25,73.1667 23,84.5C 20.1963,86.3444 17.0297,87.0111 13.5,86.5C 16.5,67.8333 19.5,49.1667 22.5,30.5 Z"/></g>
<g><path style="opacity:0.927" fill="#2f3433" d="M 84.5,30.5 C 98.8372,30.3334 113.171,30.5001 127.5,31C 128.804,31.804 129.471,32.9707 129.5,34.5C 126.653,51.2549 123.486,67.9215 120,84.5C 119.5,85 119,85.5 118.5,86C 105.838,86.4999 93.1711,86.6666 80.5,86.5C 82.5227,71.0532 85.1894,55.7199 88.5,40.5C 86.5,39.8333 84.5,39.1667 82.5,38.5C 83.2951,35.8556 83.9618,33.1889 84.5,30.5 Z M 97.5,39.5 C 104.5,39.5 111.5,39.5 118.5,39.5C 116.717,52.1995 114.717,64.8661 112.5,77.5C 105.5,77.5 98.5,77.5 91.5,77.5C 93.5,64.8333 95.5,52.1667 97.5,39.5 Z"/></g>
<g><path style="opacity:0.918" fill="#2f3433" d="M 134.5,30.5 C 138.767,30.203 142.934,30.5363 147,31.5C 149.516,44.9141 152.349,58.2474 155.5,71.5C 163.657,58.5284 171.324,45.1951 178.5,31.5C 182.783,30.5078 187.116,30.1744 191.5,30.5C 188.228,48.4675 185.061,66.4675 182,84.5C 179.196,86.3444 176.03,87.0111 172.5,86.5C 174.225,75.4888 175.725,64.4888 177,53.5C 171.033,64.2959 164.866,74.9626 158.5,85.5C 156.833,85.8333 155.167,86.1667 153.5,86.5C 151.359,86.3868 149.525,85.7201 148,84.5C 145.667,73.8333 143.333,63.1667 141,52.5C 138.089,63.6229 135.922,74.9562 134.5,86.5C 131.102,86.8204 127.768,86.487 124.5,85.5C 128.09,67.2151 131.424,48.8817 134.5,30.5 Z"/></g>
<g><path style="opacity:0.898" fill="#7cccbe" d="M 347.5,53.5 C 347.5,54.5 347.5,55.5 347.5,56.5C 342.167,56.5 336.833,56.5 331.5,56.5C 329.743,78.0497 318.077,87.883 296.5,86C 294.359,84.6924 292.359,83.1924 290.5,81.5C 288.032,82.8029 285.699,84.3029 283.5,86C 278.136,86.8295 272.802,86.6628 267.5,85.5C 268.506,84.6043 268.506,83.9377 267.5,83.5C 261.803,86.3096 255.803,87.1429 249.5,86C 246.272,84.4371 244.105,81.9371 243,78.5C 241.644,80.8976 240.477,83.3976 239.5,86C 229.816,86.8321 220.149,86.6655 210.5,85.5C 217.437,67.3562 223.77,49.0228 229.5,30.5C 232.898,30.1796 236.232,30.513 239.5,31.5C 234.167,46.5 228.833,61.5 223.5,76.5C 229.798,77.4963 236.132,77.8297 242.5,77.5C 242.82,61.3414 250.82,51.1747 266.5,47C 274.493,46.5003 282.493,46.3336 290.5,46.5C 287.376,56.5388 284.043,66.5388 280.5,76.5C 283.446,77.6548 286.446,77.8214 289.5,77C 288.378,73.5153 288.544,70.0153 290,66.5C 294.068,54.7954 298.235,43.1287 302.5,31.5C 305.784,30.343 309.118,30.1764 312.5,31C 307.541,44.042 302.874,57.2087 298.5,70.5C 299.994,76.2496 303.661,78.4162 309.5,77C 317.45,74.2404 321.283,68.7404 321,60.5C 319.833,59.3333 318.667,58.1667 317.5,57C 310.125,56.4497 308.791,53.4497 313.5,48C 323.066,46.3866 332.733,46.0532 342.5,47C 344.03,49.352 345.697,51.5187 347.5,53.5 Z M 263.5,56.5 C 268.214,56.1734 272.88,56.5067 277.5,57.5C 276.371,66.6085 271.704,73.1085 263.5,77C 252.997,77.4807 250.163,72.9807 255,63.5C 257.441,60.5464 260.275,58.2131 263.5,56.5 Z"/></g>
<g><path style="opacity:0.84" fill="#7cccbe" d="M 193.5,53.5 C 201.528,53.169 209.528,53.5023 217.5,54.5C 216.5,57.1667 215.5,59.8333 214.5,62.5C 206.862,63.4975 199.196,63.8308 191.5,63.5C 191.959,60.1226 192.626,56.7893 193.5,53.5 Z"/></g>
</svg>
