<?xml version="1.0" encoding="utf-8"?>
<!-- Generator: Adobe Illustrator 27.2.0, SVG Export Plug-In . SVG Version: 6.00 Build 0)  -->
<svg version="1.1" id="Layer_1" xmlns="http://www.w3.org/2000/svg" xmlns:xlink="http://www.w3.org/1999/xlink" x="0px" y="0px"
	 viewBox="0 0 118 41" style="enable-background:new 0 0 118 41;" xml:space="preserve">
<style type="text/css">
	.st0{fill:#FFFFFF;}
	.st1{fill:#7CCCBF;}
</style>
<g>
	<g>
		<path class="st0" d="M10,20.4L7.6,33.7H4.8l3.3-18.9h3.8l3,15l8.3-15H27l-3.3,18.9h-2.8l2.3-13.3l-7.5,13.3h-2.8L10,20.4z"/>
		<path class="st0" d="M42.5,14.8c0.4,0,0.8,0.2,1,0.5c0.3,0.3,0.3,0.7,0.3,1.1L41,32.1c-0.1,0.4-0.3,0.8-0.7,1.1s-0.8,0.5-1.2,0.5
			H27.5l2.8-16.1h-1.9l0.5-2.8C28.9,14.8,42.5,14.8,42.5,14.8z M33.2,17.6l-2.3,13.2h7.6l2.3-13.2C40.8,17.6,33.2,17.6,33.2,17.6z"
			/>
		<path class="st0" d="M47.8,20.4l-2.3,13.3h-2.8L46,14.8h3.8l3,15l8.3-15h3.8l-3.3,18.9h-2.8l2.3-13.3l-7.5,13.3h-2.8L47.8,20.4z"
			/>
		<path class="st1" d="M72.7,25.7h-7.6l1-2.8h7.6L72.7,25.7z"/>
		<path class="st1" d="M81.3,14.8l-5.7,16.1h6.6l-1,2.8h-9.5l6.7-18.9C78.4,14.8,81.3,14.8,81.3,14.8z"/>
		<path class="st1" d="M91,33.7l0.6-1.8c-1.6,1.2-3.2,1.8-4.9,1.8c-1.7,0-2.9-0.6-3.7-1.9c-0.7-1.3-0.8-2.9-0.1-4.7
			c0.6-1.8,1.8-3.4,3.4-4.7c1.7-1.3,3.3-1.9,5-1.9h7.1l-3.7,10.4h4.7l-3.8,2.8H91z M88.2,30.9c1,0,2.1-0.4,3.1-1.1s1.7-1.6,2.1-2.7
			l1.3-3.8h-3.8c-1,0-2.1,0.4-3.1,1.1s-1.7,1.6-2,2.7c-0.4,1-0.3,1.9,0.2,2.7C86.4,30.5,87.2,30.9,88.2,30.9z"/>
		<path class="st1" d="M112.1,23.3c0.4,1.1,0.3,2.4-0.2,3.8c-0.6,1.8-1.8,3.4-3.6,4.7c-1.7,1.3-3.5,1.9-5.4,1.9
			c-1.8,0-3.2-0.6-4-1.9c-0.8-1.3-0.9-2.9-0.3-4.7l4.3-12.3h2.8l-4.3,12.3c-0.4,1-0.3,1.9,0.2,2.7c0.5,0.7,1.2,1.1,2.3,1.1
			c1,0,2.1-0.4,3.1-1.1s1.7-1.6,2.1-2.7s0.3-2-0.2-2.7s-1.2-1.1-2.3-1.1c-0.4,0-0.7-0.1-0.9-0.4c-0.2-0.3-0.2-0.6-0.1-1
			s0.4-0.7,0.8-1s0.8-0.4,1.1-0.4h8.5l1.8,2.8C117.8,23.3,112.1,23.3,112.1,23.3z"/>
	</g>
	<polygon class="st1" points="8.7,11 4.4,14.8 5,11 	"/>
	<polygon class="st1" points="5.6,7.3 5,11 1.3,11 1.9,7.3 	"/>
	<polygon class="st1" points="4.4,14.8 0,18.5 0.6,14.8 	"/>
	<polygon class="st1" points="13.1,7.3 8.7,11 9.4,7.3 	"/>
</g>
</svg>
