<?xml version="1.0" encoding="UTF-8"?>
<!DOCTYPE svg PUBLIC "-//W3C//DTD SVG 1.1//EN" "http://www.w3.org/Graphics/SVG/1.1/DTD/svg11.dtd">
<svg xmlns="http://www.w3.org/2000/svg" version="1.1" width="348px" height="96px" style="shape-rendering:geometricPrecision; text-rendering:geometricPrecision; image-rendering:optimizeQuality; fill-rule:evenodd; clip-rule:evenodd" xmlns:xlink="http://www.w3.org/1999/xlink">
<g><path style="opacity:1" fill="#fcfdfd" d="M -0.5,-0.5 C 115.5,-0.5 231.5,-0.5 347.5,-0.5C 347.5,17.5 347.5,35.5 347.5,53.5C 345.466,52.4522 344.133,50.7855 343.5,48.5C 333.517,47.3344 323.517,47.1678 313.5,48C 311.556,50.1529 311.056,52.6529 312,55.5C 320.101,55.7679 322.934,59.7679 320.5,67.5C 316.86,75.9864 310.527,79.1531 301.5,77C 298.735,74.0052 297.902,70.5052 299,66.5C 303.451,54.5979 307.618,42.5979 311.5,30.5C 308.813,30.3359 306.146,30.5026 303.5,31C 296.726,45.9424 292.06,61.4424 289.5,77.5C 286.5,77.5 283.5,77.5 280.5,77.5C 283.687,67.935 286.687,58.2684 289.5,48.5C 280.853,47.3348 272.186,47.1681 263.5,48C 249.12,52.6963 242.286,62.5296 243,77.5C 245.955,86.0347 251.789,88.868 260.5,86C 262.936,85.0701 265.269,83.9034 267.5,82.5C 268.429,83.6888 268.762,85.0222 268.5,86.5C 273.179,86.6658 277.845,86.4992 282.5,86C 285.029,83.9715 287.696,82.1381 290.5,80.5C 296.335,86.6679 303.335,88.1679 311.5,85C 324.535,79.4682 330.868,69.6349 330.5,55.5C 336.167,55.5 341.833,55.5 347.5,55.5C 347.5,68.8333 347.5,82.1667 347.5,95.5C 231.5,95.5 115.5,95.5 -0.5,95.5C -0.5,77.1667 -0.5,58.8333 -0.5,40.5C 8.6688,34.7701 17.0021,27.9367 24.5,20C 21.1832,19.5017 17.8499,19.335 14.5,19.5C 15.2436,15.8815 15.577,12.2148 15.5,8.5C 11.8333,8.5 8.16667,8.5 4.5,8.5C 4.44759,12.1981 4.11425,15.8648 3.5,19.5C 6.83333,19.5 10.1667,19.5 13.5,19.5C 13.0578,23.1545 12.7244,26.8212 12.5,30.5C 8.81826,30.3347 5.15159,30.5014 1.5,31C 0.901085,32.6225 0.234419,34.1225 -0.5,35.5C -0.5,23.5 -0.5,11.5 -0.5,-0.5 Z"/></g>
<g><path style="opacity:1" fill="#8bccbf" d="M 26.5,8.5 C 30.1817,8.3347 33.8484,8.50137 37.5,9C 34.2784,12.2261 30.7784,15.0595 27,17.5C 26.5,17.1667 26,16.8333 25.5,16.5C 26.3928,13.9159 26.7261,11.2492 26.5,8.5 Z"/></g>
<g><path style="opacity:1" fill="#86ccbf" d="M -0.5,40.5 C -0.5,38.8333 -0.5,37.1667 -0.5,35.5C 0.234419,34.1225 0.901085,32.6225 1.5,31C 5.15159,30.5014 8.81826,30.3347 12.5,30.5C 12.7244,26.8212 13.0578,23.1545 13.5,19.5C 10.1667,19.5 6.83333,19.5 3.5,19.5C 4.11425,15.8648 4.44759,12.1981 4.5,8.5C 8.16667,8.5 11.8333,8.5 15.5,8.5C 15.577,12.2148 15.2436,15.8815 14.5,19.5C 17.8499,19.335 21.1832,19.5017 24.5,20C 17.0021,27.9367 8.6688,34.7701 -0.5,40.5 Z"/></g>
<g><path style="opacity:1" fill="#343738" d="M 23.5,30.5 C 27.5,30.5 31.5,30.5 35.5,30.5C 37.5342,44.9735 40.3675,59.3069 44,73.5C 51.8509,59.6269 59.5175,45.6269 67,31.5C 71.0785,30.3705 75.2452,30.2039 79.5,31C 75.9818,49.4282 72.6484,67.9282 69.5,86.5C 66.8333,86.5 64.1667,86.5 61.5,86.5C 62.9217,74.0458 64.755,61.7124 67,49.5C 59.9137,61.3374 53.0803,73.3374 46.5,85.5C 43.2317,86.487 39.8984,86.8204 36.5,86.5C 34.7567,73.7119 32.2567,61.0452 29,48.5C 26.506,61.1226 24.3394,73.7893 22.5,86.5C 19.5,86.5 16.5,86.5 13.5,86.5C 16.7156,67.7607 20.0489,49.094 23.5,30.5 Z"/></g>
<g><path style="opacity:1" fill="#333637" d="M 84.5,30.5 C 98.8372,30.3334 113.171,30.5001 127.5,31C 128.116,32.4002 128.449,33.9002 128.5,35.5C 125.993,51.5527 123.16,67.5527 120,83.5C 119.167,84.3333 118.333,85.1667 117.5,86C 105.171,86.4999 92.8378,86.6665 80.5,86.5C 83.1649,70.8409 85.8316,55.1742 88.5,39.5C 86.8333,39.5 85.1667,39.5 83.5,39.5C 83.7038,36.4824 84.0371,33.4824 84.5,30.5 Z"/></g>
<g><path style="opacity:1" fill="#98999b" d="M 97.5,39.5 C 104.648,38.5084 111.981,38.175 119.5,38.5C 119.784,40.4147 119.451,42.0813 118.5,43.5C 118.5,42.1667 118.5,40.8333 118.5,39.5C 111.5,39.5 104.5,39.5 97.5,39.5 Z"/></g>
<g><path style="opacity:1" fill="#fcfcfc" d="M 97.5,39.5 C 104.5,39.5 111.5,39.5 118.5,39.5C 118.5,40.8333 118.5,42.1667 118.5,43.5C 116.5,54.8333 114.5,66.1667 112.5,77.5C 105.5,77.5 98.5,77.5 91.5,77.5C 91.5,76.1667 91.5,74.8333 91.5,73.5C 93.0683,62.0904 95.0683,50.7571 97.5,39.5 Z"/></g>
<g><path style="opacity:1" fill="#cdf2ec" d="M 216.5,54.5 C 209.159,54.3337 201.826,54.5003 194.5,55C 192.887,57.2276 192.22,59.7276 192.5,62.5C 199.833,62.5 207.167,62.5 214.5,62.5C 207.018,63.492 199.352,63.8254 191.5,63.5C 190.989,59.9703 191.656,56.8037 193.5,54C 201.345,53.1777 209.011,53.3443 216.5,54.5 Z"/></g>
<g><path style="opacity:1" fill="#82cabe" d="M 216.5,54.5 C 215.833,57.1667 215.167,59.8333 214.5,62.5C 207.167,62.5 199.833,62.5 192.5,62.5C 192.22,59.7276 192.887,57.2276 194.5,55C 201.826,54.5003 209.159,54.3337 216.5,54.5 Z"/></g>
<g><path style="opacity:1" fill="#343738" d="M 134.5,30.5 C 138.5,30.5 142.5,30.5 146.5,30.5C 149.246,44.563 152.246,58.563 155.5,72.5C 163.828,59.1855 171.661,45.5188 179,31.5C 182.73,30.5399 186.563,30.2065 190.5,30.5C 187.282,49.1435 184.282,67.8101 181.5,86.5C 178.428,86.8174 175.428,86.4841 172.5,85.5C 174.908,73.8983 176.741,62.2317 178,50.5C 173.082,58.0001 168.416,65.6667 164,73.5C 161.597,77.6347 159.763,81.9681 158.5,86.5C 155.167,86.5 151.833,86.5 148.5,86.5C 146.009,74.2374 143.509,61.904 141,49.5C 137.587,61.5423 135.42,73.8756 134.5,86.5C 131.5,86.5 128.5,86.5 125.5,86.5C 128.5,67.8328 131.5,49.1661 134.5,30.5 Z"/></g>
<g><path style="opacity:1" fill="#999b9a" d="M 91.5,73.5 C 91.5,74.8333 91.5,76.1667 91.5,77.5C 98.5,77.5 105.5,77.5 112.5,77.5C 105.352,78.4916 98.0191,78.825 90.5,78.5C 90.2155,76.5853 90.5489,74.9187 91.5,73.5 Z"/></g>
<g><path style="opacity:1" fill="#82ccbf" d="M 230.5,30.5 C 233.518,30.3354 236.518,30.502 239.5,31C 233.628,46.326 228.294,61.826 223.5,77.5C 229.5,77.5 235.5,77.5 241.5,77.5C 241.127,80.5739 240.461,83.5739 239.5,86.5C 230.143,86.8316 220.81,86.4983 211.5,85.5C 217.998,67.15 224.331,48.8166 230.5,30.5 Z"/></g>
<g><path style="opacity:1" fill="#82cdbf" d="M 347.5,53.5 C 347.5,54.1667 347.5,54.8333 347.5,55.5C 341.833,55.5 336.167,55.5 330.5,55.5C 330.868,69.6349 324.535,79.4682 311.5,85C 303.335,88.1679 296.335,86.6679 290.5,80.5C 287.696,82.1381 285.029,83.9715 282.5,86C 277.845,86.4992 273.179,86.6658 268.5,86.5C 268.762,85.0222 268.429,83.6888 267.5,82.5C 265.269,83.9034 262.936,85.0701 260.5,86C 251.789,88.868 245.955,86.0347 243,77.5C 242.286,62.5296 249.12,52.6963 263.5,48C 272.186,47.1681 280.853,47.3348 289.5,48.5C 286.687,58.2684 283.687,67.935 280.5,77.5C 283.5,77.5 286.5,77.5 289.5,77.5C 292.06,61.4424 296.726,45.9424 303.5,31C 306.146,30.5026 308.813,30.3359 311.5,30.5C 307.618,42.5979 303.451,54.5979 299,66.5C 297.902,70.5052 298.735,74.0052 301.5,77C 310.527,79.1531 316.86,75.9864 320.5,67.5C 322.934,59.7679 320.101,55.7679 312,55.5C 311.056,52.6529 311.556,50.1529 313.5,48C 323.517,47.1678 333.517,47.3344 343.5,48.5C 344.133,50.7855 345.466,52.4522 347.5,53.5 Z"/></g>
<g><path style="opacity:1" fill="#f7fcfd" d="M 264.5,55.5 C 269.214,55.1734 273.88,55.5067 278.5,56.5C 276.752,63.0527 273.752,68.886 269.5,74C 263.61,78.6192 258.11,78.4525 253,73.5C 251.668,68.4638 252.834,64.1304 256.5,60.5C 259.227,58.7411 261.894,57.0744 264.5,55.5 Z"/></g>
</svg>
