<?xml version="1.0" encoding="UTF-8"?>
<!DOCTYPE svg PUBLIC "-//W3C//DTD SVG 1.1//EN" "http://www.w3.org/Graphics/SVG/1.1/DTD/svg11.dtd">
<svg xmlns="http://www.w3.org/2000/svg" version="1.1" width="118px" height="41px" style="shape-rendering:geometricPrecision; text-rendering:geometricPrecision; image-rendering:optimizeQuality; fill-rule:evenodd; clip-rule:evenodd" xmlns:xlink="http://www.w3.org/1999/xlink">
<g><path style="opacity:0.628" fill="#7cccbe" d="M -0.5,18.5 C -0.5,16.8333 -0.5,15.1667 -0.5,13.5C 0.977822,13.762 2.31116,13.4287 3.5,12.5C 2.67504,11.6143 1.67504,11.281 0.5,11.5C 0.5,9.83333 0.5,8.16667 0.5,6.5C 2.16667,6.5 3.83333,6.5 5.5,6.5C 5.60771,11.1366 6.60771,11.47 8.5,7.5C 10.0745,6.36912 11.7412,6.20245 13.5,7C 8.95961,11.0455 4.29294,14.8788 -0.5,18.5 Z"/></g>
<g><path style="opacity:0.775" fill="#2f3433" d="M 7.5,13.5 C 9.14387,13.2865 10.6439,13.6198 12,14.5C 12.6216,18.6121 13.6216,22.6121 15,26.5C 17.3742,22.2505 19.8742,18.0838 22.5,14C 29.4921,13.5004 36.4921,13.3337 43.5,13.5C 43.8333,21.5 44.1667,21.5 44.5,13.5C 46.288,13.2148 47.9547,13.5481 49.5,14.5C 50.6047,18.5272 51.7713,22.5272 53,26.5C 55.4209,22.6597 57.5875,18.6597 59.5,14.5C 61.0453,13.5481 62.712,13.2148 64.5,13.5C 64.0404,19.924 63.0404,26.2573 61.5,32.5C 60.1667,33.8333 58.8333,33.8333 57.5,32.5C 58.5443,30.2324 58.711,27.8991 58,25.5C 56.8773,28.2487 55.3773,30.7487 53.5,33C 52.2068,33.49 50.8734,33.6567 49.5,33.5C 48.1667,22.8333 46.8333,22.8333 45.5,33.5C 39.3266,33.239 32.9933,33.239 26.5,33.5C 27.1847,28.2438 28.1847,23.0772 29.5,18C 28.3333,17.5 27.5,16.6667 27,15.5C 25.8921,21.1473 24.8921,26.8139 24,32.5C 22.6124,33.5536 21.1124,33.7203 19.5,33C 21.0357,24.5941 20.0357,24.4275 16.5,32.5C 14.9547,33.4519 13.288,33.7852 11.5,33.5C 10.5523,23.7967 9.21895,23.4634 7.5,32.5C 6.16667,33.8333 4.83333,33.8333 3.5,32.5C 4.83886,26.1375 6.1722,19.8042 7.5,13.5 Z M 33.5,17.5 C 35.5,17.5 37.5,17.5 39.5,17.5C 38.8333,21.5 38.1667,25.5 37.5,29.5C 35.5,29.5 33.5,29.5 31.5,29.5C 31.7399,25.3939 32.4066,21.3939 33.5,17.5 Z"/></g>
<g><path style="opacity:0.757" fill="#7cccbe" d="M 104.5,20.5 C 108.833,19.1667 113.167,19.1667 117.5,20.5C 117.5,21.5 117.5,22.5 117.5,23.5C 115.833,23.5 114.167,23.5 112.5,23.5C 112.2,29.6317 109.034,32.965 103,33.5C 97.4039,33.2542 91.9039,33.2542 86.5,33.5C 84.626,33.6102 83.126,32.9436 82,31.5C 80.3023,32.733 78.3023,33.3996 76,33.5C 74.1667,33.1667 72.3333,32.8333 70.5,32.5C 72.0701,29.9626 72.9034,27.296 73,24.5C 70.2809,25.4438 67.4475,25.7771 64.5,25.5C 64.3753,22.1075 66.042,20.7741 69.5,21.5C 71.3197,21.6493 72.8197,22.3159 74,23.5C 75,20.5 76,17.5 77,14.5C 78.4936,13.2528 79.9936,13.2528 81.5,14.5C 79.5324,19.427 77.8657,24.427 76.5,29.5C 78.1667,29.5 79.8333,29.5 81.5,29.5C 82.0459,22.4571 85.8792,19.1238 93,19.5C 94.8333,19.8333 96.6667,20.1667 98.5,20.5C 96.9133,23.5212 96.2467,26.5212 96.5,29.5C 98.5733,24.281 100.24,18.9476 101.5,13.5C 102.833,13.5 104.167,13.5 105.5,13.5C 105.326,15.861 104.993,18.1944 104.5,20.5 Z M 104.5,20.5 C 105.263,22.5675 106.596,24.2341 108.5,25.5C 107.125,28.5471 104.792,29.8804 101.5,29.5C 101.528,26.0836 102.528,23.0836 104.5,20.5 Z M 88.5,23.5 C 93.4513,22.6012 94.4513,23.9346 91.5,27.5C 89.3591,30.0186 87.3591,30.0186 85.5,27.5C 86.5244,26.1482 87.5244,24.8149 88.5,23.5 Z"/></g>
</svg>
